<svg width="187" height="40" viewBox="0 0 187 40" fill="none" xmlns="http://www.w3.org/2000/svg">
<path d="M30.2297 17.828C29.7243 18.3364 29.3373 18.95 29.0962 19.6249C28.8551 20.3 28.7659 21.0199 28.8348 21.7333L28.8108 21.7093C28.8817 22.5492 28.7684 23.3943 28.4789 24.1859C28.1894 24.9773 27.7307 25.6961 27.1347 26.2921C26.5386 26.888 25.8197 27.3468 25.0279 27.6361C24.2364 27.9256 23.3911 28.0389 22.5511 27.968L22.5751 27.992C21.5705 27.8985 20.5614 28.1171 19.6854 28.618C18.8096 29.1189 18.1094 29.8777 17.6807 30.7911C17.2519 31.7044 17.1153 32.7276 17.2894 33.7215C17.4637 34.7152 17.9402 35.6311 18.654 36.3441C19.3678 37.0572 20.2843 37.5328 21.2783 37.706C22.2725 37.8793 23.2957 37.7417 24.2088 37.3123C25.1218 36.8827 25.8801 36.1821 26.3803 35.3059C26.8805 34.4296 27.0983 33.4205 27.0038 32.416L27.0292 32.44C26.9582 31.6003 27.0714 30.7551 27.361 29.9635C27.6505 29.172 28.1094 28.4532 28.7053 27.8572C29.3014 27.2613 30.0203 26.8025 30.8119 26.5132C31.6037 26.2237 32.4489 26.1104 33.2888 26.1813L33.2635 26.1573C34.0841 26.2311 34.9103 26.0965 35.6652 25.7661C36.42 25.4357 37.0793 24.9201 37.5818 24.2672C38.0843 23.6143 38.4139 22.8449 38.5398 22.0308C38.6659 21.2165 38.5843 20.3837 38.3026 19.6093C38.021 18.8351 37.5483 18.1444 36.9286 17.6013C36.3089 17.0583 35.5622 16.6804 34.7575 16.5028C33.9528 16.3252 33.1163 16.3535 32.3255 16.5851C31.5347 16.8168 30.8152 17.2443 30.2337 17.828H30.2297Z" fill="#394149"/>
<path d="M20.3919 24.8473L20.3665 24.8233C21.0804 24.8952 21.8013 24.8076 22.4772 24.5668C23.1532 24.326 23.767 23.9381 24.2746 23.431C24.782 22.924 25.1707 22.3104 25.4119 21.6348C25.6532 20.9592 25.7414 20.2385 25.67 19.5246L25.6954 19.5486C25.6244 18.7088 25.7378 17.8637 26.0272 17.0721C26.3166 16.2806 26.7755 15.5618 27.3715 14.9658C27.9676 14.37 28.6865 13.9112 29.4781 13.6218C30.2699 13.3323 31.115 13.2191 31.955 13.29L31.9297 13.266C32.9345 13.3604 33.9438 13.1424 34.8203 12.6421C35.6968 12.1418 36.3974 11.3833 36.8269 10.4701C37.2563 9.55699 37.3935 8.53362 37.2199 7.53961C37.0462 6.54559 36.5702 5.62935 35.8564 4.91583C35.1428 4.20233 34.2265 3.72627 33.2323 3.55265C32.2382 3.37901 31.2146 3.51622 30.3013 3.94558C29.3879 4.37493 28.6294 5.07553 28.1289 5.95181C27.6285 6.82807 27.4106 7.83737 27.505 8.84201L27.481 8.81667C27.552 9.65653 27.439 10.5017 27.1496 11.2934C26.8602 12.085 26.4014 12.8039 25.8054 13.4C25.2093 13.9958 24.4903 14.4546 23.6985 14.744C22.9067 15.0333 22.0614 15.1464 21.2214 15.0753L21.2454 15.1006C20.5315 15.0288 19.8104 15.1164 19.1346 15.3572C18.4588 15.5978 17.8448 15.9858 17.3372 16.4929C16.8298 17 16.4413 17.6136 16.1999 18.2892C15.9586 18.9648 15.8705 19.6854 15.9418 20.3993L15.9178 20.3753C15.9885 21.215 15.875 22.0601 15.5856 22.8516C15.2959 23.6429 14.8372 24.3617 14.2412 24.9576C13.6452 25.5534 12.9264 26.0121 12.1348 26.3017C11.3433 26.5912 10.4981 26.7046 9.65822 26.634L9.68222 26.658C8.67743 26.5636 7.66797 26.7814 6.79155 27.2818C5.91515 27.7822 5.21444 28.5406 4.78503 29.4538C4.3556 30.367 4.21835 31.3904 4.39201 32.3844C4.56568 33.3784 5.04182 34.2946 5.75543 35.0081C6.46906 35.7217 7.38544 36.1977 8.37962 36.3713C9.37378 36.5449 10.3974 36.4077 11.3106 35.9784C12.2239 35.549 12.9826 34.8485 13.4829 33.9722C13.9834 33.0958 14.2014 32.0866 14.1069 31.082L14.1322 31.106C14.0613 30.2661 14.1746 29.421 14.4642 28.6294C14.7535 27.838 15.2124 27.1192 15.8084 26.5232C16.4045 25.9273 17.1234 25.4685 17.9149 25.1792C18.7067 24.8897 19.5519 24.7764 20.3919 24.8473Z" fill="#006B6A"/>
<path d="M11.4544 22.1716C11.9599 21.6633 12.3468 21.0497 12.5878 20.3747C12.8286 19.6996 12.9175 18.9796 12.848 18.2663L12.8733 18.2903C12.8024 17.4503 12.9156 16.6048 13.2054 15.8131C13.495 15.0213 13.954 14.3024 14.5504 13.7064C15.1468 13.1104 15.8659 12.6518 16.6579 12.3625C17.4499 12.0732 18.2956 11.9603 19.1357 12.0316L19.1103 12.0076C20.1147 12.1017 21.1238 11.8837 21.9998 11.3834C22.8759 10.8831 23.5761 10.1248 24.0054 9.2119C24.4344 8.29902 24.5715 7.27602 24.3979 6.28238C24.2243 5.28874 23.7482 4.37285 23.0349 3.6596C22.3216 2.94634 21.4054 2.47045 20.4117 2.29682C19.4179 2.12318 18.3948 2.26028 17.4818 2.68937C16.5687 3.11846 15.8103 3.81869 15.31 4.69456C14.8095 5.57042 14.5915 6.5793 14.6856 7.5836L14.6616 7.5596C14.7325 8.3994 14.6192 9.24456 14.3297 10.0361C14.0402 10.8276 13.5814 11.5464 12.9854 12.1424C12.3894 12.7383 11.6704 13.197 10.8788 13.4864C10.0872 13.7759 9.24189 13.8892 8.40196 13.8183L8.42596 13.8423C7.60527 13.7687 6.77926 13.9035 6.0245 14.234C5.26974 14.5645 4.61064 15.0803 4.10828 15.7333C3.60592 16.3863 3.27656 17.1556 3.1507 17.9697C3.02485 18.784 3.10658 19.6168 3.38833 20.3909C3.67006 21.1652 4.1427 21.8557 4.76244 22.3987C5.38218 22.9417 6.12896 23.3195 6.9336 23.4971C7.73822 23.6745 8.57466 23.6461 9.3654 23.4145C10.1562 23.1828 10.8756 22.7553 11.4571 22.1716H11.4544Z" fill="#394149"/>
<path d="M181.043 14.8636C182.667 14.8636 183.983 13.5479 183.983 11.9249C183.983 10.302 182.667 8.98633 181.043 8.98633C179.42 8.98633 178.104 10.302 178.104 11.9249C178.104 13.5479 179.42 14.8636 181.043 14.8636Z" fill="#394149"/>
<path d="M43.2031 11.5455H47.7542L52.561 23.2727H52.7656L57.5724 11.5455H62.1235V29H58.544V17.6392H58.3991L53.8821 28.9148H51.4446L46.9275 17.5966H46.7826V29H43.2031V11.5455ZM67.3373 33.9091C66.8771 33.9091 66.4453 33.8722 66.0419 33.7983C65.6441 33.7301 65.3146 33.642 65.0532 33.5341L65.8714 30.8239C66.2975 30.9545 66.6811 31.0256 67.022 31.0369C67.3686 31.0483 67.6669 30.9688 67.9169 30.7983C68.1725 30.6278 68.3799 30.3381 68.539 29.929L68.7521 29.375L64.0561 15.9091H67.8742L70.5845 25.5227H70.7208L73.4566 15.9091H77.3004L72.2123 30.4148C71.968 31.1193 71.6356 31.733 71.2152 32.2557C70.8004 32.7841 70.2748 33.1903 69.6385 33.4744C69.0021 33.7642 68.235 33.9091 67.3373 33.9091ZM100.401 29.2557C99.0774 29.2557 97.9325 28.9744 96.9666 28.4119C96.0063 27.8437 95.2649 27.054 94.7421 26.0426C94.2194 25.0256 93.9581 23.8466 93.9581 22.5057C93.9581 21.1534 94.2194 19.9716 94.7421 18.9602C95.2649 17.9432 96.0063 17.1534 96.9666 16.5909C97.9325 16.0227 99.0774 15.7386 100.401 15.7386C101.725 15.7386 102.867 16.0227 103.827 16.5909C104.793 17.1534 105.538 17.9432 106.06 18.9602C106.583 19.9716 106.844 21.1534 106.844 22.5057C106.844 23.8466 106.583 25.0256 106.06 26.0426C105.538 27.054 104.793 27.8437 103.827 28.4119C102.867 28.9744 101.725 29.2557 100.401 29.2557ZM100.418 26.4432C101.021 26.4432 101.523 26.2727 101.927 25.9318C102.33 25.5852 102.634 25.1136 102.839 24.517C103.049 23.9205 103.154 23.2415 103.154 22.4801C103.154 21.7188 103.049 21.0398 102.839 20.4432C102.634 19.8466 102.33 19.375 101.927 19.0284C101.523 18.6818 101.021 18.5085 100.418 18.5085C99.8103 18.5085 99.299 18.6818 98.8842 19.0284C98.4751 19.375 98.1654 19.8466 97.9552 20.4432C97.7507 21.0398 97.6484 21.7188 97.6484 22.4801C97.6484 23.2415 97.7507 23.9205 97.9552 24.517C98.1654 25.1136 98.4751 25.5852 98.8842 25.9318C99.299 26.2727 99.8103 26.4432 100.418 26.4432ZM109.205 29V15.9091H112.725V18.1932H112.861C113.1 17.3807 113.501 16.767 114.063 16.3523C114.626 15.9318 115.273 15.7216 116.006 15.7216C116.188 15.7216 116.384 15.733 116.594 15.7557C116.805 15.7784 116.989 15.8097 117.148 15.8494V19.071C116.978 19.0199 116.742 18.9744 116.441 18.9347C116.14 18.8949 115.864 18.875 115.614 18.875C115.08 18.875 114.603 18.9915 114.182 19.2244C113.768 19.4517 113.438 19.7699 113.194 20.179C112.955 20.5881 112.836 21.0597 112.836 21.5938V29H109.205ZM126.645 15.9091V18.6364H118.761V15.9091H126.645ZM120.551 12.7727H124.182V24.9773C124.182 25.3125 124.233 25.5739 124.335 25.7614C124.437 25.9432 124.58 26.071 124.761 26.1449C124.949 26.2187 125.165 26.2557 125.409 26.2557C125.58 26.2557 125.75 26.2415 125.92 26.2131C126.091 26.179 126.222 26.1534 126.312 26.1364L126.883 28.8381C126.702 28.8949 126.446 28.9602 126.116 29.0341C125.787 29.1136 125.386 29.1619 124.915 29.179C124.04 29.2131 123.273 29.0966 122.614 28.8295C121.96 28.5625 121.452 28.1477 121.088 27.5852C120.724 27.0227 120.545 26.3125 120.551 25.4545V12.7727ZM136.05 15.9091V18.6364H127.97V15.9091H136.05ZM129.82 29V14.9631C129.82 14.0142 130.004 13.2273 130.374 12.6023C130.749 11.9773 131.26 11.5085 131.908 11.196C132.555 10.8835 133.291 10.7273 134.115 10.7273C134.672 10.7273 135.18 10.7699 135.641 10.8551C136.106 10.9403 136.453 11.017 136.68 11.0852L136.033 13.8125C135.891 13.767 135.714 13.7244 135.504 13.6847C135.3 13.6449 135.089 13.625 134.874 13.625C134.339 13.625 133.967 13.75 133.757 14C133.547 14.2443 133.442 14.5881 133.442 15.0312V29H129.82ZM143.714 29.2557C142.39 29.2557 141.245 28.9744 140.279 28.4119C139.319 27.8437 138.577 27.054 138.055 26.0426C137.532 25.0256 137.271 23.8466 137.271 22.5057C137.271 21.1534 137.532 19.9716 138.055 18.9602C138.577 17.9432 139.319 17.1534 140.279 16.5909C141.245 16.0227 142.39 15.7386 143.714 15.7386C145.038 15.7386 146.18 16.0227 147.14 16.5909C148.106 17.1534 148.85 17.9432 149.373 18.9602C149.896 19.9716 150.157 21.1534 150.157 22.5057C150.157 23.8466 149.896 25.0256 149.373 26.0426C148.85 27.054 148.106 27.8437 147.14 28.4119C146.18 28.9744 145.038 29.2557 143.714 29.2557ZM143.731 26.4432C144.333 26.4432 144.836 26.2727 145.239 25.9318C145.643 25.5852 145.947 25.1136 146.151 24.517C146.361 23.9205 146.467 23.2415 146.467 22.4801C146.467 21.7188 146.361 21.0398 146.151 20.4432C145.947 19.8466 145.643 19.375 145.239 19.0284C144.836 18.6818 144.333 18.5085 143.731 18.5085C143.123 18.5085 142.611 18.6818 142.197 19.0284C141.788 19.375 141.478 19.8466 141.268 20.4432C141.063 21.0398 140.961 21.7188 140.961 22.4801C140.961 23.2415 141.063 23.9205 141.268 24.517C141.478 25.1136 141.788 25.5852 142.197 25.9318C142.611 26.2727 143.123 26.4432 143.731 26.4432ZM156.148 11.5455V29H152.518V11.5455H156.148ZM159.057 29V15.9091H162.687V29H159.057ZM160.881 14.2216C160.341 14.2216 159.878 14.0426 159.491 13.6847C159.111 13.321 158.92 12.8864 158.92 12.3807C158.92 11.8807 159.111 11.4517 159.491 11.0938C159.878 10.7301 160.341 10.5483 160.881 10.5483C161.42 10.5483 161.881 10.7301 162.261 11.0938C162.648 11.4517 162.841 11.8807 162.841 12.3807C162.841 12.8864 162.648 13.321 162.261 13.6847C161.881 14.0426 161.42 14.2216 160.881 14.2216ZM171.511 29.2557C170.187 29.2557 169.042 28.9744 168.076 28.4119C167.116 27.8437 166.374 27.054 165.852 26.0426C165.329 25.0256 165.067 23.8466 165.067 22.5057C165.067 21.1534 165.329 19.9716 165.852 18.9602C166.374 17.9432 167.116 17.1534 168.076 16.5909C169.042 16.0227 170.187 15.7386 171.511 15.7386C172.834 15.7386 173.977 16.0227 174.937 16.5909C175.903 17.1534 176.647 17.9432 177.17 18.9602C177.692 19.9716 177.954 21.1534 177.954 22.5057C177.954 23.8466 177.692 25.0256 177.17 26.0426C176.647 27.054 175.903 27.8437 174.937 28.4119C173.977 28.9744 172.834 29.2557 171.511 29.2557ZM171.528 26.4432C172.13 26.4432 172.633 26.2727 173.036 25.9318C173.44 25.5852 173.744 25.1136 173.948 24.517C174.158 23.9205 174.263 23.2415 174.263 22.4801C174.263 21.7188 174.158 21.0398 173.948 20.4432C173.744 19.8466 173.44 19.375 173.036 19.0284C172.633 18.6818 172.13 18.5085 171.528 18.5085C170.92 18.5085 170.408 18.6818 169.994 19.0284C169.584 19.375 169.275 19.8466 169.065 20.4432C168.86 21.0398 168.758 21.7188 168.758 22.4801C168.758 23.2415 168.86 23.9205 169.065 24.517C169.275 25.1136 169.584 25.5852 169.994 25.9318C170.408 26.2727 170.92 26.4432 171.528 26.4432Z" fill="#394149"/>
<path d="M79.2265 29V11.5455H86.1129C87.4367 11.5455 88.5646 11.7983 89.4964 12.304C90.4282 12.804 91.1385 13.5 91.6271 14.392C92.1214 15.2784 92.3686 16.3011 92.3686 17.4602C92.3686 18.6193 92.1186 19.642 91.6186 20.5284C91.1186 21.4148 90.3941 22.1051 89.4453 22.5994C88.5021 23.0937 87.36 23.3409 86.0191 23.3409H81.6299V20.3835H85.4225C86.1328 20.3835 86.718 20.2614 87.1782 20.017C87.6441 19.767 87.9907 19.4233 88.218 18.9858C88.451 18.5426 88.5674 18.0341 88.5674 17.4602C88.5674 16.8807 88.451 16.375 88.218 15.9432C87.9907 15.5057 87.6441 15.1676 87.1782 14.929C86.7123 14.6847 86.1214 14.5625 85.4055 14.5625H82.9169V29H79.2265Z" fill="#006B6A"/>
</svg>
